<?xml version="1.0" encoding="utf-8"?>
<!-- Generator: Adobe Illustrator 22.0.1, SVG Export Plug-In . SVG Version: 6.00 Build 0)  -->
<svg version="1.1" xmlns="http://www.w3.org/2000/svg" xmlns:xlink="http://www.w3.org/1999/xlink" x="0px" y="0px"
	 viewBox="0 0 595.3 841.9" style="enable-background:new 0 0 595.3 841.9;" xml:space="preserve">
<style type="text/css">
	.st0{display:none;}
	.st1{display:inline;}
	.st2{display:inline;fill:none;stroke:#000000;stroke-width:8;stroke-miterlimit:10;}
	.st3{fill:#FFFFFF;}
	.st4{fill:#ED1C24;}
	.st5{display:inline;fill:none;stroke:#000000;stroke-width:9;stroke-miterlimit:10;}
	.st6{display:inline;stroke:#000000;stroke-width:0.5;stroke-miterlimit:10;}
	.st7{fill:#FBB040;}
	.st8{fill:#FBB040;stroke:#000000;stroke-width:8;stroke-miterlimit:10;}
	.st9{fill:#FFFFFF;stroke:#000000;stroke-width:8;stroke-miterlimit:10;}
	.st10{fill:#EF4358;}
	.st11{fill:none;stroke:#000000;stroke-width:9;stroke-miterlimit:10;}
	.st12{fill:none;stroke:#000000;stroke-width:8;stroke-miterlimit:10;}
	.st13{stroke:#000000;stroke-width:0.5;stroke-miterlimit:10;}
</style>
<g id="Layer_1" class="st0">
	<g class="st1">
		<g>
			<path d="M63.8,414.8c-6.3-60.9-5.6-122.4,2.2-183.1c3.9-30.5,9.7-60.8,17.1-90.7c5.5-21.9,12.1-45,26.7-62.8
				c13.1-16,33.9-24.6,53.6-14.9c19.7,9.7,31.8,31.2,40.2,50.6c11.2,25.7,19.3,53.2,27,80.1c8.3,28.9,15.2,58.3,20.7,87.8
				c12.5,66.8,17.9,134.8,16.1,202.7c-0.2,6.4,9.8,6.4,10,0c1.6-62.8-2.9-125.8-13.3-187.7c-10.3-61.1-25.7-122.6-48.7-180.3
				c-8.4-21-19.8-42.7-38.3-56.4c-17.7-13.1-41.5-14.6-60-2.1c-18.5,12.5-29.1,33.9-36.3,54.4c-9.8,28.2-15.3,58.4-20.2,87.8
				C50.1,263.1,47,327.3,51.6,391c0.6,7.9,1.3,15.9,2.1,23.8C54.4,421.2,64.4,421.2,63.8,414.8L63.8,414.8z"/>
		</g>
	</g>
	<g class="st1">
		<g>
			<path d="M541,414.8c6.6-63.9,5.4-128.4-3.4-192c-4.4-31.9-10.8-63.5-19.1-94.6c-5.8-21.5-14.4-43.8-29.9-60.3
				c-14.8-15.8-37.1-23.3-58-15.5c-21.4,8-35.8,28.1-45.7,47.8c-13,25.8-21.4,54.3-29.7,81.9c-9.1,30.2-16.6,60.8-22.7,91.8
				c-12.1,61.7-18.2,124.5-18.1,187.4c0,7.8,0.1,15.6,0.3,23.4c0.2,6.4,10.2,6.4,10,0c-3.1-120.7,16.7-241.6,58.5-355
				c7.7-20.9,17.4-42.7,34.4-57.8c15.8-14,37.9-16.9,55.5-4.3c17.4,12.4,26.9,34.5,33,54.2c8.8,28.2,14.5,57.7,19.2,86.8
				c11,68.2,12.7,137.7,5.6,206.4C530.3,421.2,540.3,421.2,541,414.8L541,414.8z"/>
		</g>
	</g>
	<circle class="st2" cx="289.3" cy="635.4" r="125.7"/>
	<circle class="st2" cx="305.4" cy="622.7" r="61"/>
	<g class="st1">
		<path class="st3" d="M254.8,633.9c22.7,9.7,33.3,35.7,38.8,59.7s8.8,50.1,24.8,68.9c21.1,25,61.9,28.9,89.1,10.7
			c27.2-18.2,39.3-55,31.1-86.7s-50-60.6-81.2-70.7"/>
		<g>
			<path d="M252.2,638.3c31,13.8,35.1,52.4,41.9,81.3c3.9,16.6,9.4,33.2,20.7,46.5c9.3,10.9,22.5,18.3,36.4,21.5
				c29.9,6.8,60.6-4.5,78.6-29.4c17-23.6,22-58.3,9-84.8c-7.7-15.5-20.8-28-34.5-38.2c-13.8-10.3-29.3-18.6-45.6-24
				c-6.1-2-8.8,7.6-2.7,9.6c26.2,8.6,53.4,25.9,69.1,49c15.8,23.3,13.7,55.2-0.7,78.7c-14.9,24.2-43.4,36-71.1,29.4
				c-13.3-3.2-25.4-10.4-33.5-21.5c-9.6-13.1-13.7-29.2-17.2-44.9c-6.6-30.2-13.7-67.7-45.2-81.8C251.5,627,246.4,635.6,252.2,638.3
				L252.2,638.3z"/>
		</g>
	</g>
	<g class="st1">
		<path class="st4" d="M254.8,633.9c34.2-6,68.3-12,102.5-18.1"/>
		<g>
			<path d="M256.1,638.8c34.2-6,68.3-12,102.5-18.1c6.3-1.1,3.6-10.8-2.7-9.6c-34.2,6-68.3,12-102.5,18.1
				C247.1,630.2,249.8,639.9,256.1,638.8L256.1,638.8z"/>
		</g>
	</g>
	<circle class="st5" cx="156.1" cy="329.6" r="101.5"/>
	<circle class="st2" cx="433.2" cy="329.6" r="100.8"/>
	<circle class="st6" cx="163.6" cy="329.6" r="55.2"/>
	<circle class="st6" cx="437.2" cy="329.6" r="55.2"/>
</g>
<g id="Layer_3">
	<path class="st7" d="M54.5,295.5c0,0,7.6-242.6,88-240.2c80.4,2.4,115.1,240.2,115.1,240.2S157.7,140.3,54.5,295.5z"/>
	<path class="st7" d="M538.9,293.5c0,0-7.8-238.6-89.8-236.2S331.6,293.5,331.6,293.5C323.8,298.2,414.4,152.7,538.9,293.5z"/>
	<polygon class="st7" points="534,311.6 518,272.2 538.5,283.7 536,316.4 	"/>
</g>
<g id="Layer_2">
	<g>
		<g>
			<path d="M62.8,415.8c-6.3-60.9-5.6-122.4,2.2-183.1c3.9-30.5,9.7-60.8,17.1-90.7c5.5-21.9,12.1-45,26.7-62.8
				c13.1-16,33.9-24.6,53.6-14.9c19.7,9.7,31.8,31.2,40.2,50.6c11.2,25.7,19.3,53.2,27,80.1c8.3,28.9,15.2,58.3,20.7,87.8
				c12.5,66.8,17.9,134.8,16.1,202.7c-0.2,6.4,9.8,6.4,10,0c1.6-62.8-2.9-125.8-13.3-187.7c-10.3-61.1-25.7-122.6-48.7-180.3
				c-8.4-21-19.8-42.7-38.3-56.4c-17.7-13.1-41.5-14.6-60-2.1c-18.5,12.5-29.1,33.9-36.3,54.4c-9.8,28.2-15.3,58.4-20.2,87.8
				C49.1,264.1,46,328.3,50.6,392c0.6,7.9,1.3,15.9,2.1,23.8C53.4,422.2,63.4,422.2,62.8,415.8L62.8,415.8z"/>
		</g>
	</g>
	<g>
		<g>
			<path d="M542,415.8c6.6-63.9,5.4-128.4-3.4-192c-4.4-31.9-10.8-63.5-19.1-94.6c-5.8-21.5-14.4-43.8-29.9-60.3
				c-14.8-15.8-37.1-23.3-58-15.5c-21.4,8-35.8,28.1-45.7,47.8c-13,25.8-21.4,54.3-29.7,81.9c-9.1,30.2-16.6,60.8-22.7,91.8
				c-12.1,61.7-18.2,124.5-18.1,187.4c0,7.8,0.1,15.6,0.3,23.4c0.2,6.4,10.2,6.4,10,0c-3.1-120.7,16.7-241.6,58.5-355
				c7.7-20.9,17.4-42.7,34.4-57.8c15.8-14,37.9-16.9,55.5-4.3c17.4,12.4,26.9,34.5,33,54.2c8.8,28.2,14.5,57.7,19.2,86.8
				c11,68.2,12.7,137.7,5.6,206.4C531.3,422.2,541.3,422.2,542,415.8L542,415.8z"/>
		</g>
	</g>
	<circle class="st8" cx="289.3" cy="636.4" r="125.7"/>
	<circle class="st9" cx="305.4" cy="623.7" r="61"/>
	<g>
		<path class="st10" d="M254.8,634.9c22.7,9.7,33.3,35.7,38.8,59.7c5.5,24,8.8,50.1,24.8,68.9c21.1,25,61.9,28.9,89.1,10.7
			c27.2-18.2,39.3-55,31.1-86.7s-50-60.6-81.2-70.7"/>
		<g>
			<path d="M252.2,639.3c31,13.8,35.1,52.4,41.9,81.3c3.9,16.6,9.4,33.2,20.7,46.5c9.3,10.9,22.5,18.3,36.4,21.5
				c29.9,6.8,60.6-4.5,78.6-29.4c17-23.6,22-58.3,9-84.8c-7.7-15.5-20.8-28-34.5-38.2c-13.8-10.3-29.3-18.6-45.6-24
				c-6.1-2-8.8,7.6-2.7,9.6c26.2,8.6,53.4,25.9,69.1,49c15.8,23.3,13.7,55.2-0.7,78.7c-14.9,24.2-43.4,36-71.1,29.4
				c-13.3-3.2-25.4-10.4-33.5-21.5c-9.6-13.1-13.7-29.2-17.2-44.9c-6.6-30.2-13.7-67.7-45.2-81.8C251.5,628,246.4,636.6,252.2,639.3
				L252.2,639.3z"/>
		</g>
	</g>
	<g>
		<path class="st4" d="M254.8,634.9c34.2-6,68.3-12,102.5-18.1"/>
		<g>
			<path d="M256.1,639.8c34.2-6,68.3-12,102.5-18.1c6.3-1.1,3.6-10.8-2.7-9.6c-34.2,6-68.3,12-102.5,18.1
				C247.1,631.2,249.8,640.9,256.1,639.8L256.1,639.8z"/>
		</g>
	</g>
	<circle class="st11" cx="156.1" cy="330.6" r="101.5"/>
	<circle class="st12" cx="433.2" cy="330.6" r="100.8"/>
	<circle class="st13" cx="163.6" cy="330.6" r="55.2"/>
	<circle class="st13" cx="437.2" cy="330.6" r="55.2"/>
</g>
</svg>
